PathFileType	4	(X/Y/Z)	C:\Users\WrightLab\Desktop\Jo\P3_36.trc
DataRate	CameraRate	NumFrames	NumMarkers	Units	OrigDataRate	OrigDataStartFrame	OrigNumFrames
100.00	100.00	       13	19	mm	100.00	1	       584
Frame#	Time	Headset_Front			Headset_Back			Headset_Left			Headset_Right			Left_Shoulder			Right_Shoulder			Sternum			C7			Left Elbow			Right Elbow			Left Wrist			Right Wrist			Left ASIS			Right ASIS			S2			Left Knee			Right Knee			Left Ankle			Right Ankle			
		X1	Y1	Z1	X2	Y2	Z2	X3	Y3	Z3	X4	Y4	Z4	X5	Y5	Z5	X6	Y6	Z6	X7	Y7	Z7	X8	Y8	Z8	X9	Y9	Z9	X10	Y10	Z10	X11	Y11	Z11	X12	Y12	Z12	X13	Y13	Z13	X14	Y14	Z14	X15	Y15	Z15	X16	Y16	Z16	X17	Y17	Z17	X18	Y18	Z18	X19	Y19	Z19	

1	0.000				-107.77853	1688.02332	2464.72485										61.66272	1399.76233	2518.09131				-121.22794	1457.54724	2541.58423				132.46642	1054.05664	2562.43286													-118.07891	1008.95581	2642.82666				12.58863	497.67010	2541.55298	-240.92929	183.59633	2639.22290	-4.45650	175.18376	2634.96973	
2	0.010				-106.68072	1687.66382	2462.23193										62.52722	1399.51196	2516.48804				-119.86965	1457.04688	2539.24902				133.76291	1054.19299	2560.95068													-117.61227	1008.83368	2641.25464				13.22090	497.13342	2539.11401	-240.62627	184.58498	2636.97412	-4.39185	175.12949	2634.90356	
3	0.020				-106.22091	1687.41809	2460.35425										63.53552	1399.29675	2514.61963				-118.90762	1457.44055	2537.24731				134.75240	1054.39050	2560.10596													-117.26700	1008.65472	2640.10767				13.96007	497.20499	2537.90308	-240.11392	185.55000	2636.33716	-4.26490	175.19319	2634.66431	
4	0.030				-105.00304	1686.65588	2456.84912										64.56831	1399.24780	2512.77026				-117.51390	1457.02832	2534.71582				136.44734	1053.93323	2558.27441													-116.66626	1008.15912	2637.69775				14.88059	495.55008	2535.89429	-241.07320	188.80182	2635.68213	-4.13188	175.10616	2634.48950	
5	0.040				-104.14655	1686.49890	2453.71460										65.91914	1398.93054	2510.79370				-116.76840	1456.92554	2533.00098				137.60284	1054.50549	2556.63159													-116.51952	1008.14325	2636.20093				15.48520	495.48807	2534.85376	-239.10175	188.21161	2632.12036	-3.86874	175.34132	2633.90161	
6	0.050				-103.26177	1686.19409	2451.09888										66.94393	1399.44788	2509.08984				-115.74831	1457.23047	2530.33643				139.42412	1053.87878	2554.60352													-116.30831	1008.22437	2634.13037				16.14815	495.68390	2533.26611	-238.86679	190.05811	2629.74121	-3.77620	175.26683	2633.80859	
7	0.060				-102.07561	1686.17200	2448.38208										67.97525	1399.60071	2507.01514				-114.78706	1457.17334	2528.17432				140.47624	1054.22314	2553.30225													-115.59975	1007.74402	2631.86792				16.66664	495.10641	2531.04272	-238.64470	192.07460	2627.57104	-3.66312	175.29640	2633.75732	
8	0.070				-101.17171	1686.44434	2446.12769										68.84818	1399.45520	2505.37744				-113.88786	1457.85132	2525.72461				142.19365	1054.58667	2550.98535													-115.05771	1007.50500	2630.23682				16.78111	494.56375	2529.50244	-238.39914	194.46951	2624.73193	-3.57315	175.25581	2633.68335	
9	0.080				-99.79850	1685.82007	2443.12671										69.98409	1399.80579	2503.00024				-112.56837	1457.40173	2522.91626				143.27547	1054.61816	2549.94092													-114.55623	1007.98743	2628.87842				17.26311	494.70724	2527.99951	-237.75192	197.02563	2621.68335	-3.51366	175.21146	2633.62549	
10	0.090				-98.84763	1685.75830	2440.05420										71.47227	1399.49890	2500.63257				-111.72659	1457.55591	2520.63184				144.55083	1054.98083	2548.05786													-113.64772	1008.58490	2627.06592				17.40125	494.64151	2526.32324	-237.32887	199.65242	2617.95532	-3.35830	175.20146	2633.52881	
11	0.100				-98.15686	1685.69324	2437.48633										72.22165	1399.87317	2498.84888				-110.43824	1457.59802	2518.34497				145.76299	1055.33582	2546.17041													-112.80092	1008.93976	2625.29370				17.74195	494.10065	2523.06226	-238.14517	204.04807	2614.29663	-2.94497	175.63121	2632.61865	
12	0.110				-96.79129	1684.84985	2434.35034										73.79182	1399.79919	2495.99927				-109.51931	1458.21240	2516.34961				147.18427	1055.62439	2544.36377													-112.33220	1009.28448	2624.07397				18.49688	493.38943	2521.38525	-236.51100	206.44289	2608.53882	-2.86203	175.46844	2632.48560	
13	0.120				-95.77306	1684.86829	2431.57886										74.86930	1400.02026	2493.79834				-108.04133	1458.07178	2513.86450				148.64426	1055.73560	2542.53149													-111.31602	1009.36621	2622.31812				19.21927	493.34479	2520.08936	-235.67279	210.37317	2603.56860	-2.67498	175.82147	2631.67529	
